<?xml version="1.0" standalone="no"?><!DOCTYPE svg PUBLIC "-//W3C//DTD SVG 1.1//EN" "http://www.w3.org/Graphics/SVG/1.1/DTD/svg11.dtd"><svg t="1655727355022" class="icon" viewBox="0 0 1024 1024" version="1.1" xmlns="http://www.w3.org/2000/svg" p-id="3320" xmlns:xlink="http://www.w3.org/1999/xlink" width="200" height="200"><defs><style type="text/css">@font-face { font-family: feedback-iconfont; src: url("//at.alicdn.com/t/font_1031158_u69w8yhxdu.woff2?t=1630033759944") format("woff2"), url("//at.alicdn.com/t/font_1031158_u69w8yhxdu.woff?t=1630033759944") format("woff"), url("//at.alicdn.com/t/font_1031158_u69w8yhxdu.ttf?t=1630033759944") format("truetype"); }
</style></defs><path d="M810.666667 938.666667h-128c-25.6 0-42.666667-17.066667-42.666667-42.666667s17.066667-42.666667 42.666667-42.666667h128c25.6 0 42.666667-17.066667 42.666666-42.666666v-128c0-25.6 17.066667-42.666667 42.666667-42.666667s42.666667 17.066667 42.666667 42.666667v128c0 72.533333-55.466667 128-128 128zM341.333333 938.666667H213.333333c-72.533333 0-128-55.466667-128-128v-128c0-25.6 17.066667-42.666667 42.666667-42.666667s42.666667 17.066667 42.666667 42.666667v128c0 25.6 17.066667 42.666667 42.666666 42.666666h128c25.6 0 42.666667 17.066667 42.666667 42.666667s-17.066667 42.666667-42.666667 42.666667zM896 384c-25.6 0-42.666667-17.066667-42.666667-42.666667V213.333333c0-25.6-17.066667-42.666667-42.666666-42.666666h-128c-25.6 0-42.666667-17.066667-42.666667-42.666667s17.066667-42.666667 42.666667-42.666667h128c72.533333 0 128 55.466667 128 128v128c0 25.6-17.066667 42.666667-42.666667 42.666667zM128 384c-25.6 0-42.666667-17.066667-42.666667-42.666667V213.333333c0-72.533333 55.466667-128 128-128h128c25.6 0 42.666667 17.066667 42.666667 42.666667s-17.066667 42.666667-42.666667 42.666667H213.333333c-25.6 0-42.666667 17.066667-42.666666 42.666666v128c0 25.6-17.066667 42.666667-42.666667 42.666667z" p-id="3321" fill="#1afa29"></path></svg>