<?xml version="1.0" standalone="no"?><!DOCTYPE svg PUBLIC "-//W3C//DTD SVG 1.1//EN" "http://www.w3.org/Graphics/SVG/1.1/DTD/svg11.dtd"><svg t="1655727264113" class="icon" viewBox="0 0 1024 1024" version="1.1" xmlns="http://www.w3.org/2000/svg" p-id="2148" xmlns:xlink="http://www.w3.org/1999/xlink" width="200" height="200"><defs><style type="text/css">@font-face { font-family: feedback-iconfont; src: url("//at.alicdn.com/t/font_1031158_u69w8yhxdu.woff2?t=1630033759944") format("woff2"), url("//at.alicdn.com/t/font_1031158_u69w8yhxdu.woff?t=1630033759944") format("woff"), url("//at.alicdn.com/t/font_1031158_u69w8yhxdu.ttf?t=1630033759944") format("truetype"); }
</style></defs><path d="M663.466667 896c-23.466667 0-42.666667-19.2-42.666667-42.666667v-113.066666c0-66.133333 53.333333-119.466667 119.466667-119.466667H853.333333c23.466667 0 42.666667 19.2 42.666667 42.666667s-19.2 42.666667-42.666667 42.666666h-113.066666c-19.2 0-34.133333 14.933333-34.133334 34.133334V853.333333c0 23.466667-19.2 42.666667-42.666666 42.666667z m-302.933334 0c-23.466667 0-42.666667-19.2-42.666666-42.666667v-113.066666c0-19.2-14.933333-34.133333-34.133334-34.133334H170.666667c-23.466667 0-42.666667-19.2-42.666667-42.666666s19.2-42.666667 42.666667-42.666667h113.066666c66.133333 0 119.466667 53.333333 119.466667 119.466667V853.333333c0 23.466667-19.2 42.666667-42.666667 42.666667zM853.333333 403.2h-113.066666c-66.133333 0-119.466667-53.333333-119.466667-119.466667V170.666667c0-23.466667 19.2-42.666667 42.666667-42.666667s42.666667 19.2 42.666666 42.666667v113.066666c0 19.2 14.933333 34.133333 34.133334 34.133334H853.333333c23.466667 0 42.666667 19.2 42.666667 42.666666s-19.2 42.666667-42.666667 42.666667z m-569.6 0H170.666667c-23.466667 0-42.666667-19.2-42.666667-42.666667s19.2-42.666667 42.666667-42.666666h113.066666c19.2 0 34.133333-14.933333 34.133334-34.133334V170.666667c0-23.466667 19.2-42.666667 42.666666-42.666667s42.666667 19.2 42.666667 42.666667v113.066666c0 66.133333-53.333333 119.466667-119.466667 119.466667z" p-id="2149" fill="#f4ea2a"></path></svg>